<?xml version="1.0" standalone="no"?>
<!DOCTYPE svg PUBLIC "-//W3C//DTD SVG 20010904//EN"
 "http://www.w3.org/TR/2001/REC-SVG-20010904/DTD/svg10.dtd">
<svg version="1.0" xmlns="http://www.w3.org/2000/svg"
 width="1024.000000pt" height="1024.000000pt" viewBox="0 0 1024.000000 1024.000000"
 preserveAspectRatio="xMidYMid meet">

<g transform="translate(0.000000,1024.000000) scale(0.100000,-0.100000)"
fill="#000000" stroke="none">
<path d="M1242 6044 c-59 -29 -106 -79 -136 -143 -20 -43 -21 -63 -21 -311 0
-229 2 -272 18 -316 22 -63 74 -126 135 -162 l47 -27 650 -3 c734 -3 699 -6
786 75 26 24 57 67 70 96 23 51 24 59 24 332 0 273 -1 281 -23 327 -13 26 -43
65 -67 87 -81 75 -42 71 -774 71 l-657 0 -52 -26z"/>
<path d="M7295 5908 c-3 -7 -4 -319 -3 -693 l3 -680 115 0 115 0 3 219 2 218
38 -42 c36 -41 39 -42 56 -25 9 10 21 14 25 9 4 -5 59 -83 121 -174 62 -91
122 -175 133 -187 19 -22 29 -23 145 -23 113 0 124 2 120 18 -3 9 -89 137
-192 285 l-188 267 174 188 c95 103 179 195 187 205 13 16 5 17 -132 17 l-145
0 -168 -200 -169 -200 -5 403 -5 402 -113 3 c-84 2 -114 -1 -117 -10z"/>
<path d="M3644 5865 c-122 -26 -242 -112 -289 -205 -69 -136 -48 -323 47 -420
57 -60 156 -102 343 -145 193 -45 242 -67 272 -121 29 -50 29 -88 1 -144 -43
-85 -142 -122 -275 -103 -120 17 -187 71 -217 176 -5 15 -20 17 -125 17 l-120
0 6 -37 c28 -177 164 -313 351 -352 77 -16 257 -14 327 4 132 35 232 114 283
223 24 50 27 69 27 162 0 95 -3 111 -28 162 -53 109 -139 158 -378 218 -247
62 -288 85 -304 172 -20 108 74 190 220 192 119 1 207 -56 229 -146 l6 -28
117 0 116 0 -7 58 c-13 117 -94 230 -201 282 -97 47 -275 63 -401 35z"/>
<path d="M8325 5848 c-3 -7 -4 -305 -3 -663 l3 -650 125 0 125 0 0 660 0 660
-123 3 c-92 2 -124 -1 -127 -10z"/>
<path d="M4520 5640 l0 -130 -75 0 -75 0 0 -100 0 -100 74 0 75 0 3 -297 c3
-338 7 -354 86 -425 53 -48 122 -68 231 -68 137 0 131 -4 131 109 l0 96 -64 2
c-80 3 -110 15 -133 50 -16 24 -18 53 -18 281 l0 255 90 -2 c129 -3 125 -6
125 105 l0 93 -107 3 -108 3 -2 95 c-1 52 -2 110 -2 128 l-1 32 -115 0 -115 0
0 -130z"/>
<path d="M8880 5641 l0 -130 -72 -3 -73 -3 0 -95 0 -95 73 -3 72 -3 0 -253 c0
-320 14 -401 82 -462 30 -28 93 -59 138 -69 40 -9 171 -8 212 0 l28 7 0 96 0
97 -69 2 c-84 2 -125 21 -140 64 -7 20 -11 123 -11 275 l0 244 94 0 c52 0 101
3 110 6 13 5 16 24 16 100 l0 94 -110 0 -109 0 -3 128 -3 127 -117 3 -118 3 0
-130z"/>
<path d="M5443 5516 c-79 -19 -159 -63 -198 -108 -37 -44 -75 -132 -75 -173
l0 -25 108 0 107 1 20 42 c27 56 77 81 165 81 117 0 179 -52 194 -165 l7 -46
-163 -6 c-253 -10 -341 -32 -409 -99 -42 -42 -58 -77 -68 -150 -23 -169 37
-277 185 -329 47 -17 77 -20 149 -17 109 4 181 33 249 102 l46 45 0 -70 0 -70
113 3 112 3 0 370 0 370 -26 56 c-63 133 -190 200 -379 198 -47 0 -108 -6
-137 -13z m327 -578 c0 -124 -88 -210 -229 -224 -105 -11 -170 28 -178 108 -5
52 22 103 65 120 23 9 112 17 310 26 30 2 32 0 32 -30z"/>
<path d="M6495 5511 c-153 -44 -266 -151 -317 -298 -32 -94 -32 -278 0 -367
30 -80 72 -143 136 -204 93 -88 186 -122 337 -122 203 0 346 83 419 243 53
116 59 107 -72 107 l-114 0 -32 -45 c-83 -118 -281 -128 -384 -19 -107 115
-98 352 18 454 50 44 93 60 157 60 96 0 168 -38 209 -110 l23 -40 113 0 112 0
0 28 c0 45 -56 149 -108 201 -56 56 -143 103 -220 120 -77 16 -207 12 -277 -8z"/>
<path d="M1130 4862 c-41 -42 -52 -97 -48 -242 4 -143 18 -183 76 -228 l35
-27 746 -2 746 -3 40 23 c29 16 48 38 68 77 28 54 28 58 25 195 -3 124 -6 144
-25 176 -12 19 -34 41 -48 47 -19 9 -231 12 -806 12 l-781 0 -28 -28z"/>
</g>
</svg>
